<svg width="654" height="500" viewBox="0 0 654 500" fill="none" xmlns="http://www.w3.org/2000/svg">
<path d="M731.927 -36.1353C760.303 15.2762 765.238 107.595 557.968 65.5797C298.88 13.0602 386.229 136.714 426.943 235.769C467.657 334.825 573.513 554.21 240.4 388.674C-92.713 223.138 6.48065 438.534 59.7787 516.316C113.077 594.098 250.764 748.998 124.921 725.065" stroke="white" stroke-width="7"/>
<path d="M834.803 30.8115C863.224 86.3816 868.167 186.168 660.57 140.754C401.074 83.9864 488.561 217.642 529.339 324.71C570.117 431.779 679.969 663.026 342.501 489.984C-114.241 255.782 95.4772 497.292 204.662 607.087C283.806 686.672 443.397 842.294 317.356 816.425" stroke="white" stroke-width="7"/>
</svg>
